HIERARCHY
ROOT Hips
{
OFFSET -0.1795 -22.3333 2.8219000000000003
	CHANNELS 6 Xposition Yposition Zposition Zrotation Yrotation Xrotation 
	JOINT LeftUpLeg
	{
OFFSET 6.952 -9.140600000000001 -0.6815
		CHANNELS 3 Zrotation Yrotation Xrotation
		JOINT LeftLeg
		{
OFFSET 3.4277 -37.5199 -0.4496
			CHANNELS 3 Zrotation Yrotation Xrotation
			JOINT LeftFoot
			{
OFFSET -1.3596000000000001 -39.7961 -4.3693
				CHANNELS 3 Zrotation Yrotation Xrotation
				JOINT LeftToe
				{
OFFSET 2.6358 -5.5791 11.9288
					CHANNELS 3 Zrotation Yrotation Xrotation
					End Site
					{
OFFSET 0.0 0.0 0.0
					}
				}
			}
		}
	}
	JOINT RightUpLeg
	{
OFFSET -6.7669999999999995 -9.052200000000001 -0.432
		CHANNELS 3 Zrotation Yrotation Xrotation
		JOINT RightLeg
		{
OFFSET -3.8289999999999997 -38.2569 -0.885
			CHANNELS 3 Zrotation Yrotation Xrotation
			JOINT RightFoot
			{
OFFSET 1.5774 -39.8415 -4.2312
				CHANNELS 3 Zrotation Yrotation Xrotation
				JOINT RightToe
				{
OFFSET -2.5372 -4.8144 12.3348
					CHANNELS 3 Zrotation Yrotation Xrotation
					End Site
					{
OFFSET 0.0 0.0 0.0
					}
				}
			}
		}
	}
	JOINT Spine
	{
OFFSET -0.2533 10.8963 -2.6696
		CHANNELS 3 Zrotation Yrotation Xrotation
		JOINT Spine1
		{
OFFSET 0.5487 13.517999999999999 0.1092
			CHANNELS 3 Zrotation Yrotation Xrotation
			JOINT Spine2
			{
OFFSET 0.1457 5.292199999999999 2.5425
				CHANNELS 3 Zrotation Yrotation Xrotation
				JOINT Neck
				{
OFFSET -0.2778 21.387 -4.2857
					CHANNELS 3 Zrotation Yrotation Xrotation
					JOINT Head
					{
OFFSET 0.5152 6.497 5.1349
						CHANNELS 3 Zrotation Yrotation Xrotation
						End Site
						{
OFFSET 0.0 0.0 0.0
						}
					}
				}
				JOINT LeftShoulder
				{
OFFSET 7.8845 12.1749 -3.4090000000000003
					CHANNELS 3 Zrotation Yrotation Xrotation
					JOINT LeftArm
					{
OFFSET 9.0977 3.0469 -0.8867999999999999
						CHANNELS 3 Zrotation Yrotation Xrotation
						JOINT LeftForeArm
						{
OFFSET 25.9612 -1.2772000000000001 -2.7456
							CHANNELS 3 Zrotation Yrotation Xrotation
							JOINT LeftHand
							{
OFFSET 24.9234 0.8986 -0.1171
								CHANNELS 3 Zrotation Yrotation Xrotation
								End Site
								{
OFFSET 0.0 0.0 0.0
								}
							}
						}
					}
				}
				JOINT RightShoulder
				{
OFFSET -8.1759 11.8833 -3.8614999999999995
					CHANNELS 3 Zrotation Yrotation Xrotation
					JOINT RightArm
					{
OFFSET -9.6012 3.2550999999999997 -0.9143
						CHANNELS 3 Zrotation Yrotation Xrotation
						JOINT RightForeArm
						{
OFFSET -25.374200000000002 -1.3329 -2.1401
							CHANNELS 3 Zrotation Yrotation Xrotation
							JOINT RightHand
							{
OFFSET -25.5298 0.7772 -0.5559
								CHANNELS 3 Zrotation Yrotation Xrotation
								End Site
								{
OFFSET 0.0 0.0 0.0
								}
							}
						}
					}
				}
			}
		}
	}
}
MOTION
Frames: 13
Frame Time: 0.050000
0.0 97.03349999999999 0.0 -1.522686 0.615755 6.021026 4.202788 -0.233321 -2.199318 -2.067024 0.303809 -5.444371 2.087799 8.582951 14.101786 0.000000 0.000000 0.000000 -1.443092 0.526148 -5.367056 1.325164 -0.151909 -0.451717 -2.517005 -10.291879 15.018023 0.000000 0.000000 0.000000 -2.116462 0.009127 2.103721 4.878158 -0.389558 -26.186447 -1.398180 -2.457226 28.861449 1.424911 0.721464 -30.649977 0.000000 0.000000 0.000000 -20.275982 3.984104 -2.831775 -57.818431 -5.394841 -6.895134 -10.209295 -23.954404 3.605338 0.000000 0.000000 0.000000 13.676772 1.401139 -0.331032 64.068239 4.356441 -6.694236 3.381458 25.829308 1.913974 0.000000 0.000000 0.000000
-0.000361 0.969053 -0.001738 -1.587742 -0.098971 6.589141 4.311543 -0.283248 -3.138220 -2.049697 0.299821 -5.019940 2.562919 8.717872 11.814024 0.000000 0.000000 0.000000 -1.567993 0.668794 -6.983696 1.525214 -0.136799 0.790580 -2.287836 -9.768438 13.940494 0.000000 0.000000 0.000000 -2.203208 0.014041 2.268122 5.213118 -0.452299 -26.373745 -1.666974 -2.213032 28.974255 1.615098 0.571472 -30.432267 0.000000 0.000000 0.000000 -20.836578 4.655178 -3.215237 -57.785324 -5.647953 -6.801576 -9.984713 -24.092536 3.600865 0.000000 0.000000 0.000000 14.012088 1.217335 -0.491605 64.343436 3.406432 -7.266000 3.608347 27.053806 2.067866 0.000000 0.000000 0.000000 
-0.000892 0.969004 -0.004492 -1.173761 -0.026448 6.624710 4.400995 -0.345735 -4.327350 -2.878561 0.337016 -3.310393 1.970885 7.855765 12.174491 0.000000 0.000000 0.000000 -1.711957 0.686237 -7.240537 1.019485 -0.071435 1.110705 -1.937155 -8.880943 12.900741 0.000000 0.000000 0.000000 -2.070941 0.005401 2.376335 4.483477 -0.335892 -25.724676 -1.723093 -2.686467 29.177827 1.939832 0.317856 -30.480805 0.000000 0.000000 0.000000 -19.811541 4.484428 -2.904143 -58.393037 -6.074464 -6.625618 -10.039281 -23.850913 3.593121 0.000000 0.000000 0.000000 14.689428 1.647429 -0.422537 64.191759 3.401282 -7.261028 2.063036 26.118559 1.626901 0.000000 0.000000 0.000000 
-0.001823 0.969734 -0.008761 -1.269103 -0.097555 7.635171 4.521775 -0.443707 -6.132372 -2.591628 0.304740 -2.467125 1.911122 7.702960 11.990897 0.000000 0.000000 0.000000 -1.614069 0.911182 -9.761838 1.063873 -0.016476 3.065764 -2.294934 -9.546650 12.838797 0.000000 0.000000 0.000000 -2.432213 0.023732 2.704405 5.172049 -0.453862 -26.131187 -1.917602 -3.097075 29.544946 2.163360 0.141670 -30.758841 0.000000 0.000000 0.000000 -20.276802 4.942597 -3.097276 -58.211143 -6.095163 -6.625823 -10.836423 -24.343403 3.879622 0.000000 0.000000 0.000000 14.852098 1.873312 -0.406297 63.416025 3.163030 -7.362079 2.829189 26.168990 1.765503 0.000000 0.000000 0.000000 
-0.003359 0.970712 -0.014822 -1.246020 0.663833 7.970108 4.700038 -0.530222 -7.745059 -2.878238 0.310458 -0.874190 1.763932 7.430658 11.515673 0.000000 0.000000 0.000000 -1.672263 1.032002 -11.254211 1.048935 0.035343 4.865370 -2.729035 -10.005961 11.671447 0.000000 0.000000 0.000000 -2.630260 0.007466 4.219768 5.583415 -0.576365 -25.541592 -1.940914 -3.427080 28.959543 1.824479 0.394827 -31.262628 0.000000 0.000000 0.000000 -20.585794 4.676784 -3.042690 -57.805631 -6.569838 -6.316134 -11.641321 -24.911529 4.141814 0.000000 0.000000 0.000000 14.688318 1.680656 -0.461961 63.503712 3.321333 -7.210086 3.087645 25.580724 1.774051 0.000000 0.000000 0.000000 
-0.005849 0.971063 -0.022308 -1.382073 0.861244 8.613853 5.058329 -0.629807 -9.980823 -3.158765 0.323344 1.156550 1.960156 7.527024 10.557833 0.000000 0.000000 0.000000 -1.726765 1.212243 -13.426307 1.150522 0.076691 6.908944 -2.885081 -10.178339 11.150027 0.000000 0.000000 0.000000 -2.849068 -0.009270 6.272185 5.870786 -0.565552 -26.424376 -1.832448 -4.164427 29.425150 1.578474 0.471015 -32.111388 0.000000 0.000000 0.000000 -20.833045 4.946249 -3.053013 -57.741385 -7.446134 -5.943641 -12.399267 -25.919184 4.559458 0.000000 0.000000 0.000000 14.488820 2.172639 -0.319351 62.682295 3.973818 -6.847270 3.779816 25.759732 1.893997 0.000000 0.000000 0.000000 
-0.009594 0.970942 -0.030709 -1.495259 1.086434 9.366260 5.225661 -0.751184 -12.584511 -3.218541 0.312858 3.604118 2.027234 7.461016 9.781167 0.000000 0.000000 0.000000 -2.113155 1.415392 -16.351670 1.626648 0.061352 9.817272 -2.784269 -9.739872 10.072383 0.000000 0.000000 0.000000 -2.825754 -0.038409 7.978549 5.885381 -0.593070 -25.986287 -1.738148 -3.978551 29.141088 2.110699 0.368458 -33.425368 0.000000 0.000000 0.000000 -19.902566 4.495415 -2.813617 -57.673814 -8.231431 -5.492218 -12.960036 -27.324203 4.954927 0.000000 0.000000 0.000000 13.785660 2.375191 -0.105325 62.557671 5.436243 -6.005963 4.002334 25.738256 1.945249 0.000000 0.000000 0.000000 
-0.014953 0.968655 -0.039367 -1.718827 0.811745 10.167917 5.270043 -0.898854 -15.924710 -3.094825 0.269439 7.772608 3.099258 8.560387 6.868579 0.000000 0.000000 0.000000 -2.075260 1.735687 -20.155566 2.023796 0.077211 14.299537 -2.720643 -9.494881 9.287099 0.000000 0.000000 0.000000 -3.081059 -0.052749 10.906066 6.146766 -0.555787 -27.108292 -1.261933 -4.148987 29.970308 1.469992 0.671576 -34.418732 0.000000 0.000000 0.000000 -19.412461 4.931633 -2.918442 -57.067313 -9.229680 -5.056127 -15.030763 -29.253059 5.965964 0.000000 0.000000 0.000000 12.621646 2.630973 0.064834 61.813949 6.720536 -5.421219 5.250302 27.385616 2.362418 0.000000 0.000000 0.000000 
-0.022150 0.963276 -0.048218 -1.848521 1.307274 11.402046 5.664915 -1.096367 -20.824998 -3.251415 0.252244 12.981845 3.496211 8.802309 4.718149 0.000000 0.000000 0.000000 -2.492708 2.012908 -24.769894 3.057810 -0.142065 19.898011 -3.026681 -9.647286 7.262859 0.000000 0.000000 0.000000 -3.057991 -0.114372 14.142227 6.658353 -0.585579 -27.816357 -1.521337 -3.947314 30.149562 1.494795 0.895237 -36.751601 0.000000 0.000000 0.000000 -18.973833 4.493405 -2.757117 -56.167598 -10.925537 -4.239293 -15.339464 -30.367856 6.264085 0.000000 0.000000 0.000000 12.424050 3.420537 0.551393 60.693184 8.579078 -4.380176 5.023808 27.869784 2.375087 0.000000 0.000000 0.000000 
-0.031260 0.949189 -0.057439 -2.189658 1.824120 13.010047 6.853050 -1.211345 -27.715527 -4.236596 0.457043 21.791179 4.604468 9.866036 0.005404 0.000000 0.000000 0.000000 -3.546426 2.228769 -31.502732 5.016042 -0.852048 27.128628 -3.697715 -10.586997 4.817002 0.000000 0.000000 0.000000 -2.749034 -0.265319 18.024528 6.671205 -0.454208 -29.233105 -1.010346 -3.561650 29.813453 1.494089 1.173233 -39.407344 0.000000 0.000000 0.000000 -20.203343 3.708469 -2.600358 -54.187613 -11.792998 -3.784438 -15.354654 -31.771968 6.491374 0.000000 0.000000 0.000000 12.425865 3.751569 0.829106 60.071709 9.805923 -3.669311 4.891773 28.980781 2.495053 0.000000 0.000000 0.000000 
-0.041703 0.921581 -0.066336 -2.712085 2.439931 14.881758 8.587134 -1.149210 -36.617674 -5.645956 0.982510 32.609260 5.897050 11.831815 -4.138871 0.000000 0.000000 0.000000 -4.148457 2.433259 -38.998064 6.730115 -1.842573 35.255843 -4.651649 -12.182139 1.342891 0.000000 0.000000 0.000000 -2.617999 -0.425833 21.992898 7.152241 -0.430444 -30.280325 -0.813583 -2.848158 28.484077 1.805852 1.247301 -40.213499 0.000000 0.000000 0.000000 -21.429237 1.804365 -1.908827 -51.975052 -12.977442 -3.084893 -14.574189 -32.678502 6.293767 0.000000 0.000000 0.000000 13.186536 4.847871 1.503946 58.760030 10.452756 -3.100148 4.170401 30.292022 2.473066 0.000000 0.000000 0.000000 
-0.052491 0.879759 -0.073721 -3.184100 2.889875 15.100353 10.271331 -0.861177 -45.483786 -6.551041 1.609996 46.721217 6.463536 12.022937 -9.545338 0.000000 0.000000 0.000000 -4.777514 2.506354 -47.050274 9.240597 -3.913473 47.371694 -5.902379 -14.725650 -2.612942 0.000000 0.000000 0.000000 -2.522199 -0.693372 27.897217 7.821545 -0.342801 -32.520708 -0.148607 -1.796015 27.983170 1.517810 1.714212 -43.570848 0.000000 0.000000 0.000000 -22.696555 0.239470 -1.424873 -50.166136 -13.590319 -2.748635 -12.069710 -34.439257 5.747986 0.000000 0.000000 0.000000 13.685993 6.916471 2.774565 56.800842 11.398182 -2.558254 2.344027 30.601666 2.067243 0.000000 0.000000 0.000000 
-0.062266 0.828247 -0.078415 -3.995227 2.047974 15.817302 12.845285 0.452260 -54.088305 -8.093665 3.436675 60.282877 8.008398 15.649375 -12.930335 0.000000 0.000000 0.000000 -4.766736 3.145323 -55.973777 10.523670 -5.551757 59.634448 -6.934374 -17.168587 -6.197769 0.000000 0.000000 0.000000 -2.793513 -0.671008 31.872071 8.011346 -0.267675 -33.362098 1.140838 0.139688 27.681808 1.587259 1.971189 -45.655606 0.000000 0.000000 0.000000 -23.523720 -1.989131 -0.576224 -48.901913 -14.874348 -2.074990 -8.896669 -34.592461 4.634127 0.000000 0.000000 0.000000 13.898497 8.045667 3.609644 54.389929 13.083546 -1.672873 1.304546 31.853100 1.914199 0.000000 0.000000 0.000000 
